# xmcd
#
# Track frame offsets:
# 150
# 15275
# 30410
# 47310
# 64890
# 81255
# 102867
# 119352
# 138892
# 152912
# 171220
# 189272
#
# Disc length: 2769 seconds
#
#
# Revision: 0
# Processed by: cddbd v1.5.1PL2 Copyright (c) Steve Scherf et al.
# Submitted via: FreeRIP 2.944 
#
DISCID=8a0acf0c
DTITLE=Lee Kernaghan - 1959
DYEAR=1995
DGENRE=Country
TTITLE0=Scrubbashin'
TTITLE1=Janine
TTITLE2=Shake On It
TTITLE3=Country Crowd
TTITLE4=Doctor
TTITLE5=Rachel's Bed
TTITLE6=Where Country Is
TTITLE7=Freedom Road
TTITLE8=Skinny Dippin'
TTITLE9=This Cowboy's Hat
TTITLE10=The Rope That Pulls the Wind
TTITLE11=1959
EXTD=
EXTT0=
EXTT1=
EXTT2=
EXTT3=
EXTT4=
EXTT5=
EXTT6=
EXTT7=
EXTT8=
EXTT9=
EXTT10=
EXTT11=
PLAYORDER=
